# xmcd
#
# Track frame offsets:
#	150
#	17150
#	44770
#	82575
#	99607
#	117202
#	149260
#	170809
#	191317
#	203825
#	216585
#	231030
#
# Disc length: 3312 seconds
# Revision: 2
# Processed by: cddbd v1.5.2PL0 Copyright (c) Steve Scherf et al.
# Submitted via: dBpowerAMP V12.0
#
DISCID=a70cee0c
DTITLE=Duke Robillard - Living With the Blues
DYEAR=2002
DGENRE=Blues
TTITLE0=If Walls Could Talk
TTITLE1=Use What You Got
TTITLE2=Stratisfied
TTITLE3=Hard Road
TTITLE4=Buy Me a Dog
TTITLE5=Goodtime Charlie
TTITLE6=Painful Memory
TTITLE7=I Live the Life I Love
TTITLE8=I'm Mad About It
TTITLE9=Sleepin' on It
TTITLE10=Living With the Blues
TTITLE11=Long Gone Baby
EXTD=
EXTT0=
EXTT1=
EXTT2=
EXTT3=
EXTT4=
EXTT5=
EXTT6=
EXTT7=
EXTT8=
EXTT9=
EXTT10=
EXTT11=
PLAYORDER=
